<svg version="1.1" id="Layer_1" xmlns="http://www.w3.org/2000/svg" xmlns:xlink="http://www.w3.org/1999/xlink" x="0px" y="0px"
	 width="100%" viewBox="0 0 1920 1920" enable-background="new 0 0 1920 1920" xml:space="preserve">
<path fill="#FFFFFF" opacity="1.000000" stroke="none" 
	d="
M1074.000000,1921.000000 
	C716.000000,1921.000000 358.500000,1921.000000 1.000000,1921.000000 
	C1.000000,1281.000000 1.000000,641.000000 1.000000,1.000000 
	C641.000000,1.000000 1281.000000,1.000000 1921.000000,1.000000 
	C1921.000000,641.000000 1921.000000,1281.000000 1921.000000,1921.000000 
	C1638.833374,1921.000000 1356.666626,1921.000000 1074.000000,1921.000000 
M896.205811,184.247711 
	C896.089294,184.479019 896.115295,184.693069 896.283752,185.840378 
	C896.385315,197.903763 896.486877,209.967133 896.325073,222.912476 
	C896.291565,226.332199 896.258057,229.751907 895.992920,233.603409 
	C895.992920,233.603409 895.939209,234.090378 895.059448,234.126892 
	C890.420593,234.382065 885.782532,234.837708 881.142700,234.857605 
	C861.319153,234.942688 841.490051,235.171280 821.673279,234.799713 
	C809.908020,234.579132 806.332214,241.526672 806.206726,250.058517 
	C805.898010,271.043945 805.967468,292.038177 806.162109,313.026306 
	C806.250427,322.554443 812.140381,327.910614 821.737854,327.957611 
	C833.064819,328.013031 844.391907,328.033325 855.813416,328.990112 
	C855.869812,342.994568 855.926270,356.998993 855.920532,371.938751 
	C855.920532,406.189728 855.920532,440.440674 855.920532,475.942535 
	C841.602478,475.942535 828.114441,475.353149 814.702332,476.109528 
	C801.480591,476.855164 788.203064,478.238312 775.183594,480.619446 
	C744.526978,486.226318 715.602783,496.914368 688.438354,512.289978 
	C658.457397,529.259827 632.070496,550.657654 609.843262,576.955139 
	C591.277222,598.921021 576.054504,623.067688 564.686340,649.587280 
	C549.975098,683.905762 541.234680,719.713684 541.198608,757.005188 
	C540.918030,1046.644165 541.018433,1336.283569 541.104797,1625.922852 
	C541.106812,1632.689697 541.878662,1639.533325 543.040771,1646.210815 
	C552.745972,1701.977539 600.808960,1742.725464 657.996216,1742.798584 
	C859.976807,1743.057007 1061.957886,1742.907837 1263.938843,1742.853149 
	C1269.242920,1742.851807 1274.605591,1742.540649 1279.840454,1741.726929 
	C1303.766113,1738.008301 1324.901123,1728.401245 1342.859009,1711.870361 
	C1367.299072,1689.372437 1380.711060,1661.372803 1380.751831,1628.486206 
	C1381.110718,1339.014038 1381.046021,1049.541138 1380.760010,760.068787 
	C1380.743774,743.734436 1378.833374,727.188232 1375.834229,711.108093 
	C1363.807495,646.626587 1333.026978,592.460693 1284.183594,548.600281 
	C1259.681152,526.597717 1232.143677,509.493439 1201.742188,496.869080 
	C1177.637329,486.859436 1152.585083,480.196045 1126.751099,477.374146 
	C1109.111816,475.447388 1091.228394,475.710968 1073.449829,475.124786 
	C1065.295410,474.855957 1066.105835,476.116058 1066.093872,467.492218 
	C1066.049194,435.329346 1066.039673,403.166382 1066.110596,370.069214 
	C1066.181519,356.067596 1066.252441,342.065948 1067.220093,328.080048 
	C1078.533203,328.055725 1089.846436,328.069458 1101.159180,327.994843 
	C1109.975220,327.936707 1115.868652,322.188751 1115.904297,313.353851 
	C1115.991333,291.725983 1116.007446,270.097076 1115.887695,248.469498 
	C1115.841309,240.103317 1110.375244,234.895172 1102.081787,234.886139 
	C1079.455322,234.861496 1056.828735,234.904068 1034.202515,234.838867 
	C1031.402222,234.830795 1028.603394,234.331467 1025.780273,233.109421 
	C1025.785278,217.012527 1025.790161,200.915634 1025.938599,184.552963 
	C1025.945679,184.335175 1025.865723,184.156067 1025.390991,183.657486 
	C1025.390991,183.657486 1025.086304,183.296677 1024.831909,182.779175 
	C1023.693970,182.514526 1022.555969,182.249878 1020.526672,181.964264 
	C1015.945190,181.435867 1011.376404,180.643036 1006.780151,180.421310 
	C972.734741,178.778870 938.694641,178.579895 904.434265,181.122894 
	C904.434265,181.122894 904.224121,181.271072 903.462097,181.326218 
	C902.477783,181.563492 901.493530,181.800766 899.916443,181.938675 
	C898.918518,182.435272 897.920532,182.931870 896.691345,183.722534 
	C896.691345,183.722534 896.418762,183.978729 896.205811,184.247711 
z"/>
<path fill="#9CCEF2" opacity="1.000000" stroke="none" 
	d="
M1066.017090,371.003479 
	C1066.039673,403.166382 1066.049194,435.329346 1066.093872,467.492218 
	C1066.105835,476.116058 1065.295410,474.855957 1073.449829,475.124786 
	C1091.228394,475.710968 1109.111816,475.447388 1126.751099,477.374146 
	C1152.585083,480.196045 1177.637329,486.859436 1201.742188,496.869080 
	C1232.143677,509.493439 1259.681152,526.597717 1284.183594,548.600281 
	C1333.026978,592.460693 1363.807495,646.626587 1375.834229,711.108093 
	C1378.833374,727.188232 1380.743774,743.734436 1380.760010,760.068787 
	C1381.046021,1049.541138 1381.110718,1339.014038 1380.751831,1628.486206 
	C1380.711060,1661.372803 1367.299072,1689.372437 1342.859009,1711.870361 
	C1324.901123,1728.401245 1303.766113,1738.008301 1279.840454,1741.726929 
	C1274.605591,1742.540649 1269.242920,1742.851807 1263.938843,1742.853149 
	C1061.957886,1742.907837 859.976807,1743.057007 657.996216,1742.798584 
	C600.808960,1742.725464 552.745972,1701.977539 543.040771,1646.210815 
	C541.878662,1639.533325 541.106812,1632.689697 541.104797,1625.922852 
	C541.018433,1336.283569 540.918030,1046.644165 541.198608,757.005188 
	C541.234680,719.713684 549.975098,683.905762 564.686340,649.587280 
	C576.054504,623.067688 591.277222,598.921021 609.843262,576.955139 
	C632.070496,550.657654 658.457397,529.259827 688.438354,512.289978 
	C715.602783,496.914368 744.526978,486.226318 775.183594,480.619446 
	C788.203064,478.238312 801.480591,476.855164 814.702332,476.109528 
	C828.114441,475.353149 841.602478,475.942535 855.920532,475.942535 
	C855.920532,440.440674 855.920532,406.189728 856.421997,371.470978 
	C870.275757,370.998993 883.627991,370.994812 896.987549,371.460205 
	C896.994873,400.256348 896.994995,428.582916 896.995117,456.909454 
	C896.995178,473.905426 896.995605,490.901398 896.994873,507.897369 
	C896.994568,514.991821 896.993408,514.993713 890.144470,514.994629 
	C878.480591,514.996216 866.808533,515.274170 855.154541,514.934387 
	C833.795410,514.311646 812.679993,516.709167 791.987976,521.372070 
	C762.979553,527.909119 735.615173,538.990356 710.427856,555.062744 
	C689.899963,568.162048 670.722473,582.942322 654.971558,601.644653 
	C645.583130,612.792175 636.200684,624.078613 628.151367,636.190369 
	C614.480408,656.760681 604.032776,679.097412 597.315125,702.908936 
	C593.778015,715.446533 591.762390,728.413330 589.050537,741.565430 
	C588.948547,742.949280 588.855835,743.954102 588.524048,745.245911 
	C587.957886,748.076843 587.630798,750.620728 587.241089,753.604919 
	C586.789551,767.021729 586.064880,779.998291 586.061462,792.974915 
	C585.994446,1044.491821 586.011169,1296.008667 586.018188,1547.525513 
	C586.018311,1550.684448 586.115112,1553.843384 586.075806,1557.463135 
	C586.360107,1575.616943 586.735352,1593.309814 587.043823,1611.406494 
	C587.300110,1613.593628 587.566040,1615.389648 587.954651,1617.158691 
	C594.894531,1648.756104 612.064758,1672.921875 640.176025,1689.196533 
	C657.570435,1699.266846 676.362854,1703.193115 696.339722,1703.182495 
	C871.800415,1703.089111 1047.261108,1703.141602 1222.721802,1703.092773 
	C1229.356689,1703.090942 1236.038818,1702.890381 1242.617188,1702.100952 
	C1262.452881,1699.721069 1279.957520,1691.698120 1295.388916,1679.139648 
	C1302.131958,1673.651978 1308.714844,1668.084229 1313.063721,1660.166504 
	C1316.324097,1654.230835 1321.506348,1649.307617 1324.486206,1643.269165 
	C1332.583984,1626.859253 1336.054443,1609.269287 1336.052734,1590.949707 
	C1336.028198,1323.842896 1336.053589,1056.736084 1335.978516,789.629211 
	C1335.975098,777.482300 1335.135864,765.335632 1334.777466,752.798584 
	C1334.328125,749.927002 1333.787109,747.445618 1333.258789,744.593872 
	C1332.905640,742.817017 1332.539917,741.410461 1332.416992,739.721680 
	C1329.270752,724.646484 1326.947144,709.505493 1322.254883,695.138123 
	C1314.230591,670.568237 1302.453613,647.685669 1287.377197,626.527710 
	C1273.215088,606.653076 1256.836548,588.850830 1237.836304,573.660950 
	C1217.125488,557.103271 1194.520752,543.574280 1169.717407,533.803528 
	C1139.799072,522.017761 1108.837769,515.660217 1076.719116,515.043579 
	C1063.728882,514.794189 1050.727539,514.856750 1037.736328,515.078003 
	C1033.433716,515.151245 1031.927979,513.867432 1031.942261,509.413940 
	C1032.090576,463.265839 1032.053833,417.117188 1032.532959,370.976990 
	C1044.003906,370.991364 1055.010498,370.997437 1066.017090,371.003479 
M977.500793,1710.995117 
	C972.668152,1710.996704 967.820251,1710.770630 963.009094,1711.092773 
	C960.459290,1711.263428 957.615234,1711.840210 955.538269,1713.201660 
	C951.991638,1715.526001 950.223450,1719.218384 951.396240,1723.579468 
	C952.869568,1729.058228 956.765747,1732.022217 962.298523,1731.982788 
	C1004.087036,1731.685181 1045.874634,1731.197998 1087.663574,1731.052612 
	C1135.990845,1730.884521 1184.319458,1731.100464 1232.646606,1730.912109 
	C1241.396362,1730.878052 1250.271973,1730.438477 1258.866821,1728.923584 
	C1300.088867,1721.658203 1331.104004,1699.980957 1351.693970,1663.155518 
	C1363.130737,1642.700684 1367.854980,1620.770386 1367.883057,1597.837280 
	C1368.078247,1438.188965 1367.986328,1278.540405 1367.986084,1118.891846 
	C1367.986084,1117.558716 1368.058228,1116.220459 1367.969482,1114.893188 
	C1367.621338,1109.687134 1362.643188,1105.005005 1357.506226,1104.998901 
	C1350.106689,1104.989868 1346.997681,1108.659546 1346.997559,1117.475464 
	C1346.994019,1270.791382 1347.017578,1424.107178 1346.952026,1577.423096 
	C1346.946899,1589.546997 1346.719849,1601.697144 1345.899536,1613.787720 
	C1344.909424,1628.382080 1339.955933,1641.908691 1332.864624,1654.629639 
	C1324.567383,1669.514038 1313.308350,1681.677979 1299.186401,1691.280762 
	C1282.740845,1702.463745 1264.554199,1709.320801 1244.844849,1709.783569 
	C1202.072388,1710.788452 1159.273560,1710.791382 1116.484619,1710.947998 
	C1070.490479,1711.116455 1024.495239,1710.991821 977.500793,1710.995117 
M772.336365,515.950562 
	C778.753784,514.327637 785.088806,512.141846 791.604248,511.189209 
	C809.923584,508.510620 828.319763,506.358734 846.679993,503.956573 
	C851.812866,503.285034 855.287109,500.378021 856.642944,495.419525 
	C857.841858,491.034576 855.962402,487.144531 852.314453,485.153992 
	C849.453613,483.592957 845.596375,482.818054 842.349426,483.183441 
	C827.732239,484.828461 813.120789,486.675964 798.607117,489.058777 
	C769.555542,493.828369 741.330688,501.801392 714.496155,513.912231 
	C679.346802,529.775696 647.827393,550.841309 622.143799,580.164978 
	C607.524109,596.856750 594.512634,614.555969 584.856934,634.508972 
	C572.506653,660.030334 563.956116,686.814697 561.006958,715.121704 
	C558.709534,737.173096 556.393738,759.252808 555.196838,781.380005 
	C554.056580,802.459045 554.341858,823.615601 554.023865,844.738464 
	C553.675842,867.860291 553.305359,890.981995 553.033813,914.104736 
	C552.652649,946.557495 552.171936,979.010681 552.087585,1011.464661 
	C552.036682,1031.032104 552.719482,1050.600586 552.960815,1070.169800 
	C553.348511,1101.622559 553.646667,1133.076416 553.977051,1164.529785 
	C554.317932,1196.983032 554.655396,1229.436279 554.986023,1261.889526 
	C555.045227,1267.699341 559.653381,1272.691284 565.000793,1272.690308 
	C570.360901,1272.689331 575.067200,1267.706299 575.007751,1261.898804 
	C574.704590,1232.278076 574.380615,1202.657349 574.016785,1173.037231 
	C573.720398,1148.914673 573.043213,1124.792480 573.090332,1100.671143 
	C573.184692,1052.387939 573.602722,1004.105042 574.001343,955.822937 
	C574.195007,932.366638 574.651306,908.912476 574.978943,885.457275 
	C575.318054,861.169128 575.598694,836.880188 575.995239,812.593018 
	C576.236816,797.800903 576.174866,782.981750 577.106567,768.228882 
	C578.242493,750.241150 579.790405,732.248779 582.042725,714.369690 
	C585.171509,689.533020 592.376770,665.846436 603.636353,643.360107 
	C615.430176,619.807007 631.171753,599.407898 650.124634,581.198608 
	C665.541138,566.386841 682.563904,553.877625 701.181885,543.572571 
	C723.375732,531.288330 747.073120,522.655029 772.336365,515.950562 
z"/>
<path fill="#9CCEF2" opacity="1.000000" stroke="none" 
	d="
M855.718933,328.068848 
	C844.391907,328.033325 833.064819,328.013031 821.737854,327.957611 
	C812.140381,327.910614 806.250427,322.554443 806.162109,313.026306 
	C805.967468,292.038177 805.898010,271.043945 806.206726,250.058517 
	C806.332214,241.526672 809.908020,234.579132 821.673279,234.799713 
	C841.490051,235.171280 861.319153,234.942688 881.142700,234.857605 
	C885.782532,234.837708 890.420593,234.382065 895.651611,234.139084 
	C896.243774,234.151276 896.554260,234.144363 896.964111,234.292877 
	C939.219055,234.518677 981.064209,234.600082 1022.909302,234.647354 
	C1023.873962,234.648438 1024.838989,234.264252 1025.803833,234.059769 
	C1028.603394,234.331467 1031.402222,234.830795 1034.202515,234.838867 
	C1056.828735,234.904068 1079.455322,234.861496 1102.081787,234.886139 
	C1110.375244,234.895172 1115.841309,240.103317 1115.887695,248.469498 
	C1116.007446,270.097076 1115.991333,291.725983 1115.904297,313.353851 
	C1115.868652,322.188751 1109.975220,327.936707 1101.159180,327.994843 
	C1089.846436,328.069458 1078.533203,328.055725 1066.271851,328.046021 
	C1054.227173,328.010254 1043.130615,328.008514 1031.561646,328.003906 
	C986.387939,328.003143 941.686707,328.005219 896.517822,328.004944 
	C882.606323,328.024689 869.162659,328.046783 855.718933,328.068848 
M992.043213,246.083359 
	C942.467102,246.073410 892.890991,246.025208 843.314941,246.078613 
	C829.809998,246.093170 822.253601,253.640015 822.068787,267.006195 
	C821.995178,272.326416 822.136230,277.649628 822.087952,283.906219 
	C822.072327,288.145721 821.702942,292.424133 822.163086,296.611328 
	C822.479614,299.491760 823.946777,302.245728 824.945923,305.782684 
	C826.712585,311.738617 834.945679,316.089966 842.070435,316.077667 
	C921.373413,315.940582 1000.676697,315.996246 1079.979858,315.985107 
	C1090.125854,315.983704 1097.722656,310.743561 1098.813477,300.621857 
	C1100.124390,288.457153 1100.205811,276.049225 1099.526001,263.818512 
	C1099.052612,255.301254 1094.039795,248.982056 1084.165894,246.884338 
	C1082.709351,246.603928 1081.252930,246.079437 1079.796387,246.079178 
	C1050.854858,246.074005 1021.913330,246.129471 992.043213,246.083359 
z"/>
<path fill="#D78812" opacity="1.000000" stroke="none" 
	d="
M1025.791992,233.584595 
	C1024.838989,234.264252 1023.873962,234.648438 1022.909302,234.647354 
	C981.064209,234.600082 939.219055,234.518677 897.027710,234.101822 
	C896.665161,233.459885 896.512817,233.263016 896.224487,233.171631 
	C896.258057,229.751907 896.291565,226.332199 896.868713,222.461502 
	C906.475830,221.341400 915.612427,221.179031 924.585815,219.885162 
	C938.256714,217.913986 952.290588,216.616455 965.299316,212.366669 
	C981.338257,207.126984 996.568115,199.334900 1011.945984,192.210556 
	C1015.107178,190.745972 1017.378906,187.361404 1020.424438,184.776459 
	C1022.220947,184.226273 1023.653625,183.761475 1025.086304,183.296677 
	C1025.086304,183.296677 1025.390991,183.657486 1025.421875,183.962845 
	C1025.419067,184.543610 1025.533203,184.727127 1025.795166,184.818741 
	C1025.790161,200.915634 1025.785278,217.012527 1025.791992,233.584595 
z"/>
<path fill="#E39014" opacity="1.000000" stroke="none" 
	d="
M1020.060669,184.861847 
	C1017.378906,187.361404 1015.107178,190.745972 1011.945984,192.210556 
	C996.568115,199.334900 981.338257,207.126984 965.299316,212.366669 
	C952.290588,216.616455 938.256714,217.913986 924.585815,219.885162 
	C915.612427,221.179031 906.475830,221.341400 897.000366,222.020523 
	C896.486877,209.967133 896.385315,197.903763 896.427368,185.248077 
	C896.711731,184.387497 896.661011,184.161819 896.418762,183.978729 
	C896.418762,183.978729 896.691345,183.722534 897.193909,183.745667 
	C906.594971,184.684128 915.497925,186.416840 924.391113,186.367752 
	C956.282776,186.191727 988.171082,185.412827 1020.060669,184.861847 
M904.014893,196.884674 
	C903.578369,200.112259 904.177979,203.271744 907.395874,204.392776 
	C909.237549,205.034393 912.515503,204.695389 913.653137,203.442062 
	C915.167419,201.773804 915.945129,198.697800 915.664429,196.394135 
	C915.470703,194.805054 912.725220,192.146881 911.512268,192.346725 
	C908.914368,192.774796 906.570557,194.745239 904.014893,196.884674 
M976.997437,196.593704 
	C978.082947,198.056244 979.168457,199.518784 980.253906,200.981323 
	C981.684448,199.916962 983.819031,199.104828 984.319763,197.707321 
	C984.710815,196.615967 983.444824,194.072983 982.254639,193.462372 
	C980.165283,192.390427 977.675964,192.531189 976.997437,196.593704 
z"/>
<path fill="#8CB9DB" opacity="1.000000" stroke="none" 
	d="
M855.766174,328.529480 
	C869.162659,328.046783 882.606323,328.024689 896.521729,328.472778 
	C896.997314,342.962036 897.001221,356.981140 897.000427,370.999207 
	C896.995789,370.998230 896.980286,370.990601 896.980286,370.990601 
	C883.627991,370.994812 870.275757,370.998993 856.453125,371.003326 
	C855.926270,356.998993 855.869812,342.994568 855.766174,328.529480 
z"/>
<path fill="#8CB9DB" opacity="1.000000" stroke="none" 
	d="
M1032.034180,328.006775 
	C1043.130615,328.008514 1054.227173,328.010254 1065.823486,328.038147 
	C1066.252441,342.065948 1066.181519,356.067596 1066.063843,370.536377 
	C1055.010498,370.997437 1044.003906,370.991364 1032.517334,370.984314 
	C1032.037354,370.983307 1032.030273,370.966187 1032.027344,370.500854 
	C1032.027588,356.025940 1032.030884,342.016357 1032.034180,328.006775 
z"/>
<path fill="#E39014" opacity="1.000000" stroke="none" 
	d="
M904.679260,181.201111 
	C938.694641,178.579895 972.734741,178.778870 1006.780151,180.421310 
	C1011.376404,180.643036 1015.945190,181.435867 1020.643250,182.283508 
	C1010.508545,183.404068 1000.258728,184.856110 990.005676,184.879318 
	C963.880737,184.938461 937.753052,184.432693 911.630127,183.953033 
	C907.912659,183.884781 904.215698,182.703934 900.509216,182.038025 
	C901.493530,181.800766 902.477783,181.563492 903.866821,181.404205 
	C904.271484,181.482208 904.578613,181.472122 904.578613,181.472122 
	C904.578613,181.472122 904.679260,181.201111 904.679260,181.201111 
z"/>
<path fill="#A3CEA9" opacity="1.000000" stroke="none" 
	d="
M900.212830,181.988342 
	C904.215698,182.703934 907.912659,183.884781 911.630127,183.953033 
	C937.753052,184.432693 963.880737,184.938461 990.005676,184.879318 
	C1000.258728,184.856110 1010.508545,183.404068 1021.088928,182.293976 
	C1022.555969,182.249878 1023.693970,182.514526 1024.959106,183.037933 
	C1023.653625,183.761475 1022.220947,184.226273 1020.424438,184.776474 
	C988.171082,185.412827 956.282776,186.191727 924.391113,186.367752 
	C915.497925,186.416840 906.594971,184.684128 897.309509,183.598633 
	C897.920532,182.931870 898.918518,182.435272 900.212830,181.988342 
z"/>
<path fill="#A3CEA9" opacity="1.000000" stroke="none" 
	d="
M896.108704,233.387512 
	C896.512817,233.263016 896.665161,233.459885 896.617859,233.953308 
	C896.554260,234.144363 896.243774,234.151276 896.091492,234.120819 
	C895.939209,234.090378 895.992920,233.603409 896.108704,233.387512 
z"/>
<path fill="#A3CEA9" opacity="1.000000" stroke="none" 
	d="
M904.556763,181.162003 
	C904.679260,181.201111 904.578613,181.472122 904.578613,181.472122 
	C904.578613,181.472122 904.271484,181.482208 904.247803,181.376648 
	C904.224121,181.271072 904.434265,181.122894 904.556763,181.162003 
z"/>
<path fill="#A3CEA9" opacity="1.000000" stroke="none" 
	d="
M896.312256,184.113220 
	C896.661011,184.161819 896.711731,184.387497 896.427490,184.772812 
	C896.115295,184.693069 896.089294,184.479019 896.312256,184.113220 
z"/>
<path fill="#A3CEA9" opacity="1.000000" stroke="none" 
	d="
M1025.866943,184.685852 
	C1025.533203,184.727127 1025.419067,184.543610 1025.575684,184.141937 
	C1025.865723,184.156067 1025.945679,184.335175 1025.866943,184.685852 
z"/>
<path fill="#087814" opacity="1.000000" stroke="none" 
	d="
M586.166748,1557.002319 
	C586.115112,1553.843384 586.018311,1550.684448 586.018188,1547.525513 
	C586.011169,1296.008667 585.994446,1044.491821 586.061462,792.974915 
	C586.064880,779.998291 586.789551,767.021729 587.557617,753.661072 
	C592.625183,761.714966 599.919067,767.355774 608.352539,771.472839 
	C616.404846,775.403809 624.738831,778.758057 632.949219,782.771606 
	C633.800659,794.706726 637.933105,804.931396 644.174866,814.668213 
	C653.091492,828.577759 672.726562,837.139343 688.863647,833.530945 
	C701.718262,830.656494 713.158875,824.730957 723.973145,817.520508 
	C729.557739,813.796814 734.744995,809.477112 740.512817,805.370728 
	C742.256042,805.308777 743.598206,805.302856 745.251465,805.526184 
	C905.716553,824.895203 1065.564575,824.495239 1225.003662,798.659912 
	C1224.666382,801.694092 1224.048096,804.313904 1224.040771,806.935425 
	C1223.661133,943.388428 1223.379761,1079.841675 1222.982422,1216.294678 
	C1222.744263,1298.082886 1222.460449,1379.871582 1221.874023,1461.657837 
	C1221.776855,1475.198730 1220.051270,1488.730591 1219.016968,1502.261841 
	C1217.576538,1521.106934 1211.720215,1538.799561 1202.696533,1555.114014 
	C1192.469360,1573.604126 1176.935791,1586.994141 1157.546265,1595.672485 
	C1137.287720,1604.739868 1115.590210,1607.737183 1093.841187,1609.830811 
	C1078.175049,1611.338989 1062.365112,1611.390869 1046.615112,1611.980591 
	C1027.037231,1612.713623 1007.453247,1613.280884 987.875427,1614.015381 
	C972.291992,1614.599976 956.717407,1615.426636 941.132751,1615.968994 
	C919.222412,1616.731689 897.307739,1617.376343 875.392456,1617.984253 
	C860.438049,1618.399170 845.479858,1618.678467 830.522827,1618.993530 
	C813.899841,1619.343750 797.277344,1619.822144 780.652588,1619.933105 
	C772.531616,1619.987305 764.396484,1619.483521 756.284546,1618.967896 
	C742.407166,1618.085693 728.391541,1617.938477 714.713867,1615.740845 
	C699.589233,1613.310547 684.327332,1610.198242 669.934570,1605.098755 
	C646.485962,1596.790771 625.892395,1582.869629 605.732117,1568.406494 
	C599.625793,1564.026001 592.711121,1560.772217 586.166748,1557.002319 
M942.380554,902.010864 
	C931.609802,900.288269 920.822327,898.662842 910.071777,896.822388 
	C889.060181,893.225281 867.955261,890.054504 847.098328,885.703735 
	C820.342407,880.122437 793.437744,876.876282 766.134033,878.125183 
	C756.263916,878.576660 746.317993,879.776917 736.658813,881.824951 
	C724.456055,884.412292 712.856445,888.811523 701.666565,894.747803 
	C683.192566,904.548218 669.897339,919.106018 660.231628,937.082520 
	C650.472168,955.233582 644.541992,974.720032 640.563232,995.046082 
	C636.821838,1014.159241 634.907471,1033.406738 634.255615,1052.694092 
	C633.509094,1074.778931 634.514404,1096.931152 635.026794,1119.047974 
	C635.499817,1139.465332 636.208191,1159.879517 637.053955,1180.284912 
	C637.430847,1189.377808 638.362610,1198.448975 639.106628,1207.524902 
	C640.377136,1223.023560 642.408386,1238.498047 642.846436,1254.018677 
	C643.695984,1284.123291 643.159363,1314.270508 644.206055,1344.364868 
	C644.727234,1359.346436 646.398560,1374.478760 649.496765,1389.131226 
	C653.314148,1407.185181 659.028870,1424.725098 668.311523,1441.099731 
	C679.197205,1460.302246 693.334473,1476.151611 711.609619,1488.274170 
	C731.043762,1501.165405 752.394592,1509.145020 775.429016,1513.212524 
	C796.089050,1516.860718 816.666016,1519.050293 837.673096,1517.111572 
	C853.996948,1515.605103 870.474365,1515.639893 886.757141,1513.843994 
	C904.464905,1511.890869 922.062134,1508.824951 939.641724,1505.854126 
	C956.045471,1503.082153 971.643738,1497.413452 986.694031,1490.541138 
	C1008.139465,1480.748779 1027.384766,1467.739624 1044.010254,1450.718506 
	C1058.722778,1435.655640 1071.201416,1418.985596 1081.402954,1400.769653 
	C1092.079590,1381.705078 1100.824829,1361.674316 1107.292603,1340.678589 
	C1114.717896,1316.574707 1120.368286,1292.074097 1122.873779,1267.025024 
	C1125.278687,1242.982544 1126.774902,1218.824707 1127.827393,1194.680786 
	C1128.426636,1180.931885 1127.328857,1167.109619 1127.012207,1153.320068 
	C1126.668579,1138.364502 1126.463257,1123.404663 1125.979736,1108.453735 
	C1125.454102,1092.202515 1124.803833,1075.953125 1123.978638,1059.714600 
	C1122.945557,1039.385010 1118.812378,1019.701904 1110.476807,1001.060913 
	C1100.861206,979.557739 1086.498779,961.668579 1067.173950,948.296387 
	C1056.248047,940.736023 1044.618164,933.892700 1032.558472,928.351929 
	C1019.362427,922.289124 1005.529236,917.323059 991.564270,913.300537 
	C975.693115,908.728943 959.368713,905.731079 942.380554,902.010864 
M1179.722656,1094.418335 
	C1169.312988,1089.411743 1160.387573,1097.634644 1158.414673,1104.594360 
	C1157.150269,1109.054199 1157.595337,1113.718994 1161.015991,1117.195679 
	C1164.474731,1120.711060 1168.900024,1121.959717 1173.828369,1120.537842 
	C1179.620728,1118.866577 1184.016602,1115.440552 1185.543579,1109.509155 
	C1187.039917,1103.696777 1184.896606,1098.761230 1179.722656,1094.418335 
M692.543701,878.961853 
	C696.284119,874.636230 697.166260,869.756165 694.918640,865.823181 
	C692.523438,861.631836 687.829102,859.340088 682.534973,861.327942 
	C679.060852,862.632324 675.993286,865.659302 673.401062,868.512146 
	C670.088379,872.157959 669.680054,876.724426 672.603088,880.844666 
	C675.546204,884.993225 679.847839,885.994751 684.492676,883.942261 
	C687.139404,882.772766 689.518250,880.996948 692.543701,878.961853 
M1087.437866,1504.016235 
	C1079.934814,1499.419189 1072.592407,1501.730591 1069.657959,1510.021973 
	C1068.121704,1514.362793 1068.040894,1519.021240 1072.003662,1522.424805 
	C1075.759521,1525.650635 1079.792236,1526.883301 1084.738159,1524.236572 
	C1093.159790,1519.729736 1094.282104,1513.837769 1087.437866,1504.016235 
M673.540161,1527.025269 
	C674.699402,1526.959595 675.893799,1527.051270 677.011963,1526.801514 
	C682.589661,1525.556641 686.719543,1519.584839 685.845154,1514.153198 
	C684.833313,1507.867188 680.454224,1503.881592 674.789551,1504.090942 
	C668.754639,1504.314087 662.096741,1510.993408 662.402405,1516.958496 
	C662.650391,1521.798096 666.611511,1527.528564 673.540161,1527.025269 
z"/>
<path fill="#C3ECFE" opacity="1.000000" stroke="none" 
	d="
M1032.052979,370.975983 
	C1032.053833,417.117188 1032.090576,463.265839 1031.942261,509.413940 
	C1031.927979,513.867432 1033.433716,515.151245 1037.736328,515.078003 
	C1050.727539,514.856750 1063.728882,514.794189 1076.719116,515.043579 
	C1108.837769,515.660217 1139.799072,522.017761 1169.717407,533.803528 
	C1194.520752,543.574280 1217.125488,557.103271 1237.836304,573.660950 
	C1256.836548,588.850830 1273.215088,606.653076 1287.377197,626.527710 
	C1302.453613,647.685669 1314.230591,670.568237 1322.254883,695.138123 
	C1326.947144,709.505493 1329.270752,724.646484 1332.182617,739.471069 
	C1326.147949,731.835083 1318.366211,727.039490 1310.051514,723.054077 
	C1285.822021,711.440491 1259.913208,705.264099 1233.769897,699.999756 
	C1177.163940,688.601440 1119.830688,683.227783 1062.264648,680.297729 
	C1033.191040,678.817871 1004.059387,678.339905 974.946716,677.810059 
	C955.300598,677.452515 935.641846,677.795410 915.989868,677.429443 
	C916.665283,674.678162 917.006592,672.159546 918.066711,669.992676 
	C926.357605,653.047546 927.665344,635.335632 921.630798,617.780640 
	C909.490662,582.464111 879.789368,565.282532 845.905396,563.064819 
	C824.521118,561.665222 803.859192,566.067505 784.229370,574.034119 
	C768.372253,580.469666 752.981873,588.206299 737.864990,596.267090 
	C725.891357,602.651672 714.209167,609.793640 703.188721,617.701904 
	C689.396301,627.599365 677.943176,640.098450 668.032593,653.932739 
	C657.535522,668.585815 649.464905,684.485840 643.723145,701.557983 
	C642.642029,704.772461 641.980225,708.127869 641.002747,711.559814 
	C640.571289,711.897888 640.262024,712.094299 639.551575,712.353210 
	C631.979370,715.049072 624.660461,717.343323 617.671631,720.393799 
	C606.660950,725.199646 596.040527,730.744385 589.059753,741.186340 
	C591.762390,728.413330 593.778015,715.446533 597.315125,702.908936 
	C604.032776,679.097412 614.480408,656.760681 628.151367,636.190369 
	C636.200684,624.078613 645.583130,612.792175 654.971558,601.644653 
	C670.722473,582.942322 689.899963,568.162048 710.427856,555.062744 
	C735.615173,538.990356 762.979553,527.909119 791.987976,521.372070 
	C812.679993,516.709167 833.795410,514.311646 855.154541,514.934387 
	C866.808533,515.274170 878.480591,514.996216 890.144470,514.994629 
	C896.993408,514.993713 896.994568,514.991821 896.994873,507.897369 
	C896.995605,490.901398 896.995178,473.905426 896.995117,456.909454 
	C896.994995,428.582916 896.994873,400.256348 896.987549,371.460205 
	C896.980286,370.990601 896.995789,370.998230 897.468506,370.998779 
	C942.637634,370.988281 987.333923,370.977234 1032.030273,370.966187 
	C1032.030273,370.966187 1032.037354,370.983307 1032.052979,370.975983 
z"/>
<path fill="#076B11" opacity="1.000000" stroke="none" 
	d="
M1334.685913,753.188843 
	C1335.135864,765.335632 1335.975098,777.482300 1335.978516,789.629211 
	C1336.053589,1056.736084 1336.028198,1323.842896 1336.052734,1590.949707 
	C1336.054443,1609.269287 1332.583984,1626.859253 1324.486206,1643.269165 
	C1321.506348,1649.307617 1316.324097,1654.230835 1313.063721,1660.166504 
	C1308.714844,1668.084229 1302.131958,1673.651978 1295.388916,1679.139648 
	C1279.957520,1691.698120 1262.452881,1699.721069 1242.617188,1702.100952 
	C1236.038818,1702.890381 1229.356689,1703.090942 1222.721802,1703.092773 
	C1047.261108,1703.141602 871.800415,1703.089111 696.339722,1703.182495 
	C676.362854,1703.193115 657.570435,1699.266846 640.176025,1689.196533 
	C612.064758,1672.921875 594.894531,1648.756104 587.954651,1617.158691 
	C587.566040,1615.389648 587.300110,1613.593628 587.389832,1611.445312 
	C590.903992,1613.255737 594.002991,1615.434692 597.107239,1617.605957 
	C609.587463,1626.335205 621.434265,1636.220581 634.710754,1643.497314 
	C651.416626,1652.653564 669.576111,1658.851807 688.743774,1661.093262 
	C704.003540,1662.877686 719.266541,1665.237305 734.583130,1665.775146 
	C752.500854,1666.404541 770.481506,1665.455444 788.428894,1664.971069 
	C807.840881,1664.447144 827.244812,1663.630615 846.654602,1663.015381 
	C859.438782,1662.610107 872.227539,1662.354126 885.013245,1661.994751 
	C895.801147,1661.691650 906.586243,1661.280762 917.374939,1661.017090 
	C933.159180,1660.631348 948.946960,1660.386963 964.730469,1659.977539 
	C972.355347,1659.779907 979.973328,1659.328735 987.595520,1659.018433 
	C1004.337341,1658.336792 1021.078552,1657.637939 1037.822388,1657.009033 
	C1056.562622,1656.305054 1075.303833,1655.625366 1094.047485,1655.021851 
	C1106.997925,1654.604858 1120.004150,1654.939941 1132.893188,1653.848999 
	C1149.503906,1652.442993 1166.212158,1650.906616 1182.532227,1647.676758 
	C1202.520386,1643.721069 1220.576782,1634.726196 1235.534424,1620.583252 
	C1248.311890,1608.501709 1256.466431,1593.447021 1262.218140,1576.895508 
	C1270.668945,1552.576904 1272.534668,1527.147217 1272.712646,1501.952759 
	C1273.657227,1368.208496 1273.610840,1234.457520 1274.027222,1100.709106 
	C1274.195190,1046.768311 1274.789185,992.828979 1274.964355,938.888245 
	C1275.128906,888.237976 1274.996704,837.586670 1275.319824,786.761963 
	C1277.200317,786.045776 1278.746948,785.475342 1280.313477,784.965698 
	C1296.060181,779.842346 1311.822632,774.659607 1324.825195,763.871643 
	C1328.521851,760.804626 1331.421021,756.776306 1334.685913,753.188843 
M1296.088867,908.926147 
	C1296.065552,913.270081 1294.760864,918.139343 1296.282104,921.850098 
	C1299.588623,929.915771 1307.866943,929.935486 1314.845093,922.597778 
	C1319.571289,917.628113 1319.292236,909.870850 1314.244141,905.887695 
	C1308.470459,901.331970 1300.317871,902.396851 1296.088867,908.926147 
M1281.982300,1640.184692 
	C1282.762817,1635.494995 1281.095459,1631.396484 1276.712280,1630.187622 
	C1272.807861,1629.110840 1267.894775,1628.780884 1264.261475,1630.223267 
	C1256.134521,1633.449951 1255.657593,1644.571289 1262.896118,1649.496704 
	C1270.940918,1654.970947 1278.393677,1651.654541 1281.982300,1640.184692 
z"/>
<path fill="#077212" opacity="1.000000" stroke="none" 
	d="
M1274.995117,786.935852 
	C1274.996704,837.586670 1275.128906,888.237976 1274.964355,938.888245 
	C1274.789185,992.828979 1274.195190,1046.768311 1274.027222,1100.709106 
	C1273.610840,1234.457520 1273.657227,1368.208496 1272.712646,1501.952759 
	C1272.534668,1527.147217 1270.668945,1552.576904 1262.218140,1576.895508 
	C1256.466431,1593.447021 1248.311890,1608.501709 1235.534424,1620.583252 
	C1220.576782,1634.726196 1202.520386,1643.721069 1182.532227,1647.676758 
	C1166.212158,1650.906616 1149.503906,1652.442993 1132.893188,1653.848999 
	C1120.004150,1654.939941 1106.997925,1654.604858 1094.047485,1655.021851 
	C1075.303833,1655.625366 1056.562622,1656.305054 1037.822388,1657.009033 
	C1021.078552,1657.637939 1004.337341,1658.336792 987.595520,1659.018433 
	C979.973328,1659.328735 972.355347,1659.779907 964.730469,1659.977539 
	C948.946960,1660.386963 933.159180,1660.631348 917.374939,1661.017090 
	C906.586243,1661.280762 895.801147,1661.691650 885.013245,1661.994751 
	C872.227539,1662.354126 859.438782,1662.610107 846.654602,1663.015381 
	C827.244812,1663.630615 807.840881,1664.447144 788.428894,1664.971069 
	C770.481506,1665.455444 752.500854,1666.404541 734.583130,1665.775146 
	C719.266541,1665.237305 704.003540,1662.877686 688.743774,1661.093262 
	C669.576111,1658.851807 651.416626,1652.653564 634.710754,1643.497314 
	C621.434265,1636.220581 609.587463,1626.335205 597.107239,1617.605957 
	C594.002991,1615.434692 590.903992,1613.255737 587.456543,1611.041504 
	C586.735352,1593.309814 586.360107,1575.616943 586.075806,1557.463135 
	C592.711121,1560.772217 599.625793,1564.026001 605.732117,1568.406494 
	C625.892395,1582.869629 646.485962,1596.790771 669.934570,1605.098755 
	C684.327332,1610.198242 699.589233,1613.310547 714.713867,1615.740845 
	C728.391541,1617.938477 742.407166,1618.085693 756.284546,1618.967896 
	C764.396484,1619.483521 772.531616,1619.987305 780.652588,1619.933105 
	C797.277344,1619.822144 813.899841,1619.343750 830.522827,1618.993530 
	C845.479858,1618.678467 860.438049,1618.399170 875.392456,1617.984253 
	C897.307739,1617.376343 919.222412,1616.731689 941.132751,1615.968994 
	C956.717407,1615.426636 972.291992,1614.599976 987.875427,1614.015381 
	C1007.453247,1613.280884 1027.037231,1612.713623 1046.615112,1611.980591 
	C1062.365112,1611.390869 1078.175049,1611.338989 1093.841187,1609.830811 
	C1115.590210,1607.737183 1137.287720,1604.739868 1157.546265,1595.672485 
	C1176.935791,1586.994141 1192.469360,1573.604126 1202.696533,1555.114014 
	C1211.720215,1538.799561 1217.576538,1521.106934 1219.016968,1502.261841 
	C1220.051270,1488.730591 1221.776855,1475.198730 1221.874023,1461.657837 
	C1222.460449,1379.871582 1222.744263,1298.082886 1222.982422,1216.294678 
	C1223.379761,1079.841675 1223.661133,943.388428 1224.040771,806.935425 
	C1224.048096,804.313904 1224.666382,801.694092 1225.404785,798.547607 
	C1226.625732,797.894104 1227.452759,797.815063 1228.255859,797.631592 
	C1243.837280,794.073608 1259.415894,790.503540 1274.995117,786.935852 
M890.364258,1650.038818 
	C891.451660,1648.224487 892.934387,1646.534180 893.550049,1644.571899 
	C895.195862,1639.326172 892.519043,1634.107056 887.664612,1632.402100 
	C882.824890,1630.702026 877.071106,1633.481445 875.053467,1638.546387 
	C873.405334,1642.683716 873.070923,1646.886108 876.726196,1650.025269 
	C880.735718,1653.468872 885.323975,1652.492310 890.364258,1650.038818 
M1250.169067,1375.653198 
	C1256.341309,1378.617676 1261.093384,1377.309448 1263.491455,1371.985596 
	C1265.882446,1366.677490 1263.888062,1362.484375 1257.751221,1359.886475 
	C1253.750610,1358.193115 1250.198608,1358.787354 1247.503662,1362.269897 
	C1244.696899,1365.896729 1245.631104,1371.057983 1250.169067,1375.653198 
z"/>
<path fill="#299436" opacity="1.000000" stroke="none" 
	d="
M915.988708,677.825012 
	C935.641846,677.795410 955.300598,677.452515 974.946716,677.810059 
	C1004.059387,678.339905 1033.191040,678.817871 1062.264648,680.297729 
	C1119.830688,683.227783 1177.163940,688.601440 1233.769897,699.999756 
	C1259.913208,705.264099 1285.822021,711.440491 1310.051514,723.054077 
	C1318.366211,727.039490 1326.147949,731.835083 1331.939575,739.753296 
	C1332.539917,741.410461 1332.905640,742.817017 1332.924072,744.711426 
	C1325.250122,755.255981 1314.893555,761.180603 1303.778687,765.882202 
	C1277.935059,776.814026 1250.824463,783.557251 1223.249023,787.851990 
	C1188.557251,793.255066 1153.720459,797.896484 1118.822998,801.751587 
	C1094.434692,804.445740 1069.855347,805.579529 1045.331665,806.826050 
	C1027.557861,807.729492 1009.734680,808.008301 991.934631,807.974915 
	C960.635010,807.916260 929.329346,807.707214 898.039429,806.985168 
	C874.626648,806.444946 851.230408,805.085022 827.835632,803.913147 
	C819.224304,803.481750 810.626038,802.666016 802.043457,801.808777 
	C786.709900,800.277161 771.392761,798.580872 756.102966,796.618652 
	C757.226624,795.306458 758.220398,794.188416 759.419922,793.372986 
	C776.543152,781.731140 793.763977,770.231567 810.822266,758.495605 
	C836.623474,740.744629 862.469849,723.051697 887.978210,704.886353 
	C897.969299,697.771423 906.942200,689.299377 913.446533,678.258484 
	C914.531921,678.049988 915.260315,677.937500 915.988708,677.825012 
z"/>
<path fill="#8CB9DB" opacity="1.000000" stroke="none" 
	d="
M978.000610,1710.995117 
	C1024.495239,1710.991821 1070.490479,1711.116455 1116.484619,1710.947998 
	C1159.273560,1710.791382 1202.072388,1710.788452 1244.844849,1709.783569 
	C1264.554199,1709.320801 1282.740845,1702.463745 1299.186401,1691.280762 
	C1313.308350,1681.677979 1324.567383,1669.514038 1332.864624,1654.629639 
	C1339.955933,1641.908691 1344.909424,1628.382080 1345.899536,1613.787720 
	C1346.719849,1601.697144 1346.946899,1589.546997 1346.952026,1577.423096 
	C1347.017578,1424.107178 1346.994019,1270.791382 1346.997559,1117.475464 
	C1346.997681,1108.659546 1350.106689,1104.989868 1357.506226,1104.998901 
	C1362.643188,1105.005005 1367.621338,1109.687134 1367.969482,1114.893188 
	C1368.058228,1116.220459 1367.986084,1117.558716 1367.986084,1118.891846 
	C1367.986328,1278.540405 1368.078247,1438.188965 1367.883057,1597.837280 
	C1367.854980,1620.770386 1363.130737,1642.700684 1351.693970,1663.155518 
	C1331.104004,1699.980957 1300.088867,1721.658203 1258.866821,1728.923584 
	C1250.271973,1730.438477 1241.396362,1730.878052 1232.646606,1730.912109 
	C1184.319458,1731.100464 1135.990845,1730.884521 1087.663574,1731.052612 
	C1045.874634,1731.197998 1004.087036,1731.685181 962.298523,1731.982788 
	C956.765747,1732.022217 952.869568,1729.058228 951.396240,1723.579468 
	C950.223450,1719.218384 951.991638,1715.526001 955.538269,1713.201660 
	C957.615234,1711.840210 960.459290,1711.263428 963.009094,1711.092773 
	C967.820251,1710.770630 972.668152,1710.996704 978.000610,1710.995117 
z"/>
<path fill="#C4E1F7" opacity="1.000000" stroke="none" 
	d="
M771.925232,515.980042 
	C747.073120,522.655029 723.375732,531.288330 701.181885,543.572571 
	C682.563904,553.877625 665.541138,566.386841 650.124634,581.198608 
	C631.171753,599.407898 615.430176,619.807007 603.636353,643.360107 
	C592.376770,665.846436 585.171509,689.533020 582.042725,714.369690 
	C579.790405,732.248779 578.242493,750.241150 577.106567,768.228882 
	C576.174866,782.981750 576.236816,797.800903 575.995239,812.593018 
	C575.598694,836.880188 575.318054,861.169128 574.978943,885.457275 
	C574.651306,908.912476 574.195007,932.366638 574.001343,955.822937 
	C573.602722,1004.105042 573.184692,1052.387939 573.090332,1100.671143 
	C573.043213,1124.792480 573.720398,1148.914673 574.016785,1173.037231 
	C574.380615,1202.657349 574.704590,1232.278076 575.007751,1261.898804 
	C575.067200,1267.706299 570.360901,1272.689331 565.000793,1272.690308 
	C559.653381,1272.691284 555.045227,1267.699341 554.986023,1261.889526 
	C554.655396,1229.436279 554.317932,1196.983032 553.977051,1164.529785 
	C553.646667,1133.076416 553.348511,1101.622559 552.960815,1070.169800 
	C552.719482,1050.600586 552.036682,1031.032104 552.087585,1011.464661 
	C552.171936,979.010681 552.652649,946.557495 553.033813,914.104736 
	C553.305359,890.981995 553.675842,867.860291 554.023865,844.738464 
	C554.341858,823.615601 554.056580,802.459045 555.196838,781.380005 
	C556.393738,759.252808 558.709534,737.173096 561.006958,715.121704 
	C563.956116,686.814697 572.506653,660.030334 584.856934,634.508972 
	C594.512634,614.555969 607.524109,596.856750 622.143799,580.164978 
	C647.827393,550.841309 679.346802,529.775696 714.496155,513.912231 
	C741.330688,501.801392 769.555542,493.828369 798.607117,489.058777 
	C813.120789,486.675964 827.732239,484.828461 842.349426,483.183441 
	C845.596375,482.818054 849.453613,483.592957 852.314453,485.153992 
	C855.962402,487.144531 857.841858,491.034576 856.642944,495.419525 
	C855.287109,500.378021 851.812866,503.285034 846.679993,503.956573 
	C828.319763,506.358734 809.923584,508.510620 791.604248,511.189209 
	C785.088806,512.141846 778.753784,514.327637 771.925232,515.980042 
z"/>
<path fill="#66B36E" opacity="1.000000" stroke="none" 
	d="
M756.068787,796.953491 
	C771.392761,798.580872 786.709900,800.277161 802.043457,801.808777 
	C810.626038,802.666016 819.224304,803.481750 827.835632,803.913147 
	C851.230408,805.085022 874.626648,806.444946 898.039429,806.985168 
	C929.329346,807.707214 960.635010,807.916260 991.934631,807.974915 
	C1009.734680,808.008301 1027.557861,807.729492 1045.331665,806.826050 
	C1069.855347,805.579529 1094.434692,804.445740 1118.822998,801.751587 
	C1153.720459,797.896484 1188.557251,793.255066 1223.249023,787.851990 
	C1250.824463,783.557251 1277.935059,776.814026 1303.778687,765.882202 
	C1314.893555,761.180603 1325.250122,755.255981 1332.911377,745.081787 
	C1333.787109,747.445618 1334.328125,749.927002 1334.777466,752.798584 
	C1331.421021,756.776306 1328.521851,760.804626 1324.825195,763.871643 
	C1311.822632,774.659607 1296.060181,779.842346 1280.313477,784.965698 
	C1278.746948,785.475342 1277.200317,786.045776 1275.319824,786.761963 
	C1259.415894,790.503540 1243.837280,794.073608 1228.255859,797.631592 
	C1227.452759,797.815063 1226.625732,797.894104 1225.408936,798.134033 
	C1065.564575,824.495239 905.716553,824.895203 745.295288,805.156860 
	C748.005676,802.049622 750.983337,799.541016 754.312317,797.016357 
	C755.132019,796.984619 755.600403,796.969055 756.068787,796.953491 
z"/>
<path fill="#299436" opacity="1.000000" stroke="none" 
	d="
M589.050537,741.565430 
	C596.040527,730.744385 606.660950,725.199646 617.671631,720.393799 
	C624.660461,717.343323 631.979370,715.049072 639.535950,712.800659 
	C635.290649,732.142700 632.208191,751.312988 631.604858,770.868835 
	C615.206116,765.296143 599.789612,758.726624 588.763184,744.958923 
	C588.855835,743.954102 588.948547,742.949280 589.050537,741.565430 
z"/>
<path fill="#66B36E" opacity="1.000000" stroke="none" 
	d="
M588.524048,745.245911 
	C599.789612,758.726624 615.206116,765.296143 631.616333,771.137573 
	C631.997742,771.591797 631.997620,771.770386 631.997192,772.387207 
	C632.328918,775.815674 632.660950,778.805908 632.983887,781.938721 
	C632.974792,782.081299 632.948975,782.365845 632.948975,782.365845 
	C624.738831,778.758057 616.404846,775.403809 608.352539,771.472839 
	C599.919067,767.355774 592.625183,761.714966 587.620239,753.220825 
	C587.630798,750.620728 587.957886,748.076843 588.524048,745.245911 
z"/>
<path fill="#C3ECFE" opacity="1.000000" stroke="none" 
	d="
M1084.990845,247.013702 
	C1094.039795,248.982056 1099.052612,255.301254 1099.526001,263.818512 
	C1100.205811,276.049225 1100.124390,288.457153 1098.813477,300.621857 
	C1097.722656,310.743561 1090.125854,315.983704 1079.979858,315.985107 
	C1000.676697,315.996246 921.373413,315.940582 842.070435,316.077667 
	C834.945679,316.089966 826.712585,311.738617 825.390991,305.399902 
	C834.080933,305.012512 842.334473,305.246552 850.568665,304.947601 
	C862.986511,304.496796 875.432983,304.105865 887.790771,302.903351 
	C904.557739,301.271820 921.317810,299.315063 937.956970,296.707275 
	C950.810852,294.692780 963.548523,291.767670 976.200439,288.683411 
	C987.713257,285.876831 999.164551,282.686829 1010.419861,278.987000 
	C1025.741943,273.950409 1041.098022,268.858948 1055.967407,262.658722 
	C1066.061401,258.449738 1075.344849,252.297134 1084.990845,247.013702 
z"/>
<path fill="#CFF0FF" opacity="1.000000" stroke="none" 
	d="
M1084.578369,246.949005 
	C1075.344849,252.297134 1066.061401,258.449738 1055.967407,262.658722 
	C1041.098022,268.858948 1025.741943,273.950409 1010.419861,278.987000 
	C999.164551,282.686829 987.713257,285.876831 976.200439,288.683411 
	C963.548523,291.767670 950.810852,294.692780 937.956970,296.707275 
	C921.317810,299.315063 904.557739,301.271820 887.790771,302.903351 
	C875.432983,304.105865 862.986511,304.496796 850.568665,304.947601 
	C842.334473,305.246552 834.080933,305.012512 825.367859,305.036621 
	C823.946777,302.245728 822.479614,299.491760 822.163086,296.611328 
	C821.702942,292.424133 822.072327,288.145721 822.582458,283.447998 
	C828.896179,282.879974 834.750488,283.134155 840.526733,282.578156 
	C850.057922,281.660828 859.570251,280.422852 869.033081,278.950897 
	C882.246216,276.895660 895.455505,274.750305 908.573669,272.171265 
	C918.786377,270.163452 928.936340,267.722168 938.973511,264.961823 
	C955.537537,260.406494 972.015137,255.527054 988.447388,250.516190 
	C990.231201,249.972229 991.476624,247.662994 992.971802,246.172607 
	C1021.913330,246.129471 1050.854858,246.074005 1079.796387,246.079178 
	C1081.252930,246.079437 1082.709351,246.603928 1084.578369,246.949005 
z"/>
<path fill="#AFD4E4" opacity="1.000000" stroke="none" 
	d="
M1032.027344,370.500854 
	C987.333923,370.977234 942.637634,370.988281 897.473145,370.999786 
	C897.001221,356.981140 896.997314,342.962036 896.989502,328.475159 
	C941.686707,328.005219 986.387939,328.003143 1031.561646,328.003906 
	C1032.030884,342.016357 1032.027588,356.025940 1032.027344,370.500854 
z"/>
<path fill="#D9F4FF" opacity="1.000000" stroke="none" 
	d="
M992.507446,246.127975 
	C991.476624,247.662994 990.231201,249.972229 988.447388,250.516190 
	C972.015137,255.527054 955.537537,260.406494 938.973511,264.961823 
	C928.936340,267.722168 918.786377,270.163452 908.573669,272.171265 
	C895.455505,274.750305 882.246216,276.895660 869.033081,278.950897 
	C859.570251,280.422852 850.057922,281.660828 840.526733,282.578156 
	C834.750488,283.134155 828.896179,282.879974 822.628296,282.980652 
	C822.136230,277.649628 821.995178,272.326416 822.068787,267.006195 
	C822.253601,253.640015 829.809998,246.093170 843.314941,246.078613 
	C892.890991,246.025208 942.467102,246.073410 992.507446,246.127975 
z"/>
<path fill="#D78812" opacity="1.000000" stroke="none" 
	d="
M904.068726,196.484344 
	C906.570557,194.745239 908.914368,192.774796 911.512268,192.346725 
	C912.725220,192.146881 915.470703,194.805054 915.664429,196.394135 
	C915.945129,198.697800 915.167419,201.773804 913.653137,203.442062 
	C912.515503,204.695389 909.237549,205.034393 907.395874,204.392776 
	C904.177979,203.271744 903.578369,200.112259 904.068726,196.484344 
z"/>
<path fill="#D78812" opacity="1.000000" stroke="none" 
	d="
M977.015015,196.182220 
	C977.675964,192.531189 980.165283,192.390427 982.254639,193.462372 
	C983.444824,194.072983 984.710815,196.615967 984.319763,197.707321 
	C983.819031,199.104828 981.684448,199.916962 980.253906,200.981323 
	C979.168457,199.518784 978.082947,198.056244 977.015015,196.182220 
z"/>
<path fill="#1B8227" opacity="1.000000" stroke="none" 
	d="
M942.810913,902.030029 
	C959.368713,905.731079 975.693115,908.728943 991.564270,913.300537 
	C1005.529236,917.323059 1019.362427,922.289124 1032.558472,928.351929 
	C1044.618164,933.892700 1056.248047,940.736023 1067.173950,948.296387 
	C1086.498779,961.668579 1100.861206,979.557739 1110.476807,1001.060913 
	C1118.812378,1019.701904 1122.945557,1039.385010 1123.978638,1059.714600 
	C1124.803833,1075.953125 1125.454102,1092.202515 1125.979736,1108.453735 
	C1126.463257,1123.404663 1126.668579,1138.364502 1127.012207,1153.320068 
	C1127.328857,1167.109619 1128.426636,1180.931885 1127.827393,1194.680786 
	C1126.774902,1218.824707 1125.278687,1242.982544 1122.873779,1267.025024 
	C1120.368286,1292.074097 1114.717896,1316.574707 1107.292603,1340.678589 
	C1100.824829,1361.674316 1092.079590,1381.705078 1081.402954,1400.769653 
	C1071.201416,1418.985596 1058.722778,1435.655640 1044.010254,1450.718506 
	C1027.384766,1467.739624 1008.139465,1480.748779 986.694031,1490.541138 
	C971.643738,1497.413452 956.045471,1503.082153 939.641724,1505.854126 
	C922.062134,1508.824951 904.464905,1511.890869 886.757141,1513.843994 
	C870.474365,1515.639893 853.996948,1515.605103 837.673096,1517.111572 
	C816.666016,1519.050293 796.089050,1516.860718 775.429016,1513.212524 
	C752.394592,1509.145020 731.043762,1501.165405 711.609619,1488.274170 
	C693.334473,1476.151611 679.197205,1460.302246 668.311523,1441.099731 
	C659.028870,1424.725098 653.314148,1407.185181 649.496765,1389.131226 
	C646.398560,1374.478760 644.727234,1359.346436 644.206055,1344.364868 
	C643.159363,1314.270508 643.695984,1284.123291 642.846436,1254.018677 
	C642.408386,1238.498047 640.377136,1223.023560 639.106628,1207.524902 
	C638.362610,1198.448975 637.430847,1189.377808 637.053955,1180.284912 
	C636.208191,1159.879517 635.499817,1139.465332 635.026794,1119.047974 
	C634.514404,1096.931152 633.509094,1074.778931 634.255615,1052.694092 
	C634.907471,1033.406738 636.821838,1014.159241 640.563232,995.046082 
	C644.541992,974.720032 650.472168,955.233582 660.231628,937.082520 
	C669.897339,919.106018 683.192566,904.548218 701.666565,894.747803 
	C712.856445,888.811523 724.456055,884.412292 736.658813,881.824951 
	C746.317993,879.776917 756.263916,878.576660 766.134033,878.125183 
	C793.437744,876.876282 820.342407,880.122437 847.098328,885.703735 
	C867.955261,890.054504 889.060181,893.225281 910.071777,896.822388 
	C920.822327,898.662842 931.609802,900.288269 942.810913,902.030029 
M776.558289,1013.047485 
	C770.437927,993.386963 757.169556,980.465698 738.426025,972.794922 
	C714.308533,962.924805 695.236511,970.854187 686.540222,995.223022 
	C683.104858,1004.849792 681.240173,1015.136353 679.574402,1025.272705 
	C676.904419,1041.518921 674.291504,1057.888794 677.939575,1074.365479 
	C681.893066,1092.221191 690.219971,1107.217651 708.663269,1113.054810 
	C727.497681,1119.015747 744.318970,1113.157593 757.210876,1098.992920 
	C779.478088,1074.527344 784.631531,1045.506714 776.558289,1013.047485 
M967.525330,990.047302 
	C960.751038,984.373047 954.202087,984.467834 948.141296,990.327698 
	C942.155579,996.114868 940.861389,1004.366577 945.117798,1009.605469 
	C950.054993,1015.682129 958.664734,1017.085144 965.251465,1012.886230 
	C971.819397,1008.699463 972.998962,999.287109 967.525330,990.047302 
M897.705444,1362.127930 
	C892.155640,1366.962524 890.140320,1373.237793 892.553894,1378.992676 
	C896.282166,1387.882935 907.433716,1388.432617 913.795288,1380.912720 
	C918.696411,1375.119263 919.650085,1366.902466 915.208862,1361.863892 
	C910.808044,1356.871094 905.624451,1356.846924 897.705444,1362.127930 
M666.485962,1213.070679 
	C663.894287,1214.329224 660.614563,1214.975708 658.844543,1216.965210 
	C654.196899,1222.189575 655.482483,1229.586914 661.087280,1233.479736 
	C665.973938,1236.873779 674.011169,1234.891602 677.742920,1229.547852 
	C682.037781,1223.397827 678.599487,1218.657715 673.341736,1215.056885 
	C671.678284,1213.917603 669.317017,1213.797241 666.485962,1213.070679 
z"/>
<path fill="#3A9343" opacity="1.000000" stroke="none" 
	d="
M740.111816,805.426758 
	C734.744995,809.477112 729.557739,813.796814 723.973145,817.520508 
	C713.158875,824.730957 701.718262,830.656494 688.863647,833.530945 
	C672.726562,837.139343 653.091492,828.577759 644.174866,814.668213 
	C637.933105,804.931396 633.800659,794.706726 632.949219,782.771606 
	C632.948975,782.365845 632.974792,782.081299 633.341675,782.078735 
	C656.643921,787.733948 679.510376,793.694824 702.542358,798.927551 
	C714.918884,801.739380 727.579407,803.301025 740.111816,805.426758 
z"/>
<path fill="#86C28B" opacity="1.000000" stroke="none" 
	d="
M740.512817,805.370728 
	C727.579407,803.301025 714.918884,801.739380 702.542358,798.927551 
	C679.510376,793.694824 656.643921,787.733948 633.350830,781.936157 
	C632.660950,778.805908 632.328918,775.815674 632.399597,772.395874 
	C636.280884,772.984192 639.719055,774.176453 643.244446,774.991150 
	C664.652893,779.938660 686.002930,785.185852 707.529480,789.559937 
	C722.879089,792.678833 738.474976,794.585083 753.960999,797.032471 
	C750.983337,799.541016 748.005676,802.049622 744.984253,804.927612 
	C743.598206,805.302856 742.256042,805.308777 740.512817,805.370728 
z"/>
<path fill="#3A9343" opacity="1.000000" stroke="none" 
	d="
M1180.032959,1094.652954 
	C1184.896606,1098.761230 1187.039917,1103.696777 1185.543579,1109.509155 
	C1184.016602,1115.440552 1179.620728,1118.866577 1173.828369,1120.537842 
	C1168.900024,1121.959717 1164.474731,1120.711060 1161.015991,1117.195679 
	C1157.595337,1113.718994 1157.150269,1109.054199 1158.414673,1104.594360 
	C1160.387573,1097.634644 1169.312988,1089.411743 1180.032959,1094.652954 
z"/>
<path fill="#3A9343" opacity="1.000000" stroke="none" 
	d="
M692.280701,879.228027 
	C689.518250,880.996948 687.139404,882.772766 684.492676,883.942261 
	C679.847839,885.994751 675.546204,884.993225 672.603088,880.844666 
	C669.680054,876.724426 670.088379,872.157959 673.401062,868.512146 
	C675.993286,865.659302 679.060852,862.632324 682.534973,861.327942 
	C687.829102,859.340088 692.523438,861.631836 694.918640,865.823181 
	C697.166260,869.756165 696.284119,874.636230 692.280701,879.228027 
z"/>
<path fill="#3A9343" opacity="1.000000" stroke="none" 
	d="
M1087.706299,1504.276855 
	C1094.282104,1513.837769 1093.159790,1519.729736 1084.738159,1524.236572 
	C1079.792236,1526.883301 1075.759521,1525.650635 1072.003662,1522.424805 
	C1068.040894,1519.021240 1068.121704,1514.362793 1069.657959,1510.021973 
	C1072.592407,1501.730591 1079.934814,1499.419189 1087.706299,1504.276855 
z"/>
<path fill="#3A9343" opacity="1.000000" stroke="none" 
	d="
M673.115295,1527.025146 
	C666.611511,1527.528564 662.650391,1521.798096 662.402405,1516.958496 
	C662.096741,1510.993408 668.754639,1504.314087 674.789551,1504.090942 
	C680.454224,1503.881592 684.833313,1507.867188 685.845154,1514.153198 
	C686.719543,1519.584839 682.589661,1525.556641 677.011963,1526.801514 
	C675.893799,1527.051270 674.699402,1526.959595 673.115295,1527.025146 
z"/>
<path fill="#CFF0FF" opacity="1.000000" stroke="none" 
	d="
M915.989868,677.429443 
	C915.260315,677.937500 914.531921,678.049988 912.984558,678.166870 
	C902.548340,678.484009 892.919617,678.597168 883.316101,679.148621 
	C858.768250,680.558411 834.225037,682.066345 809.693115,683.729248 
	C796.444763,684.627319 783.223450,685.923828 770.182495,686.755493 
	C782.421875,679.305664 795.576782,674.019714 806.425781,664.816101 
	C816.577087,656.204224 823.567566,646.056641 821.924438,632.097290 
	C819.753601,613.654663 806.350464,604.091370 788.117188,607.543884 
	C773.628418,610.287354 761.847107,618.910095 749.864807,626.752197 
	C734.928955,636.527161 722.142517,648.788208 710.859070,662.620178 
	C701.455139,674.148071 692.370667,685.870056 686.793762,700.060242 
	C686.176453,700.343018 685.769897,700.537598 684.926636,700.763916 
	C676.548584,702.276428 668.532227,703.445374 660.689087,705.333740 
	C654.063477,706.928955 647.638611,709.358215 641.124939,711.418274 
	C641.980225,708.127869 642.642029,704.772461 643.723145,701.557983 
	C649.464905,684.485840 657.535522,668.585815 668.032593,653.932739 
	C677.943176,640.098450 689.396301,627.599365 703.188721,617.701904 
	C714.209167,609.793640 725.891357,602.651672 737.864990,596.267090 
	C752.981873,588.206299 768.372253,580.469666 784.229370,574.034119 
	C803.859192,566.067505 824.521118,561.665222 845.905396,563.064819 
	C879.789368,565.282532 909.490662,582.464111 921.630798,617.780640 
	C927.665344,635.335632 926.357605,653.047546 918.066711,669.992676 
	C917.006592,672.159546 916.665283,674.678162 915.989868,677.429443 
z"/>
<path fill="#55A95C" opacity="1.000000" stroke="none" 
	d="
M641.002747,711.559814 
	C647.638611,709.358215 654.063477,706.928955 660.689087,705.333740 
	C668.532227,703.445374 676.548584,702.276428 684.866394,701.193481 
	C684.625488,703.833374 683.904907,706.052795 683.408081,708.321289 
	C680.962158,719.489258 687.882385,726.415588 698.973267,723.695374 
	C702.163757,722.912842 705.259033,721.476562 708.187683,719.939453 
	C718.943909,714.294250 729.655151,708.559509 740.299255,702.705566 
	C748.727417,698.070251 757.032593,693.211304 765.733765,688.380493 
	C767.380005,687.886292 768.684937,687.463440 769.989929,687.040527 
	C783.223450,685.923828 796.444763,684.627319 809.693115,683.729248 
	C834.225037,682.066345 858.768250,680.558411 883.316101,679.148621 
	C892.919617,678.597168 902.548340,678.484009 912.627563,678.262817 
	C906.942200,689.299377 897.969299,697.771423 887.978210,704.886353 
	C862.469849,723.051697 836.623474,740.744629 810.822266,758.495605 
	C793.763977,770.231567 776.543152,781.731140 759.419922,793.372986 
	C758.220398,794.188416 757.226624,795.306458 756.102966,796.618652 
	C755.600403,796.969055 755.132019,796.984619 754.312317,797.016357 
	C738.474976,794.585083 722.879089,792.678833 707.529480,789.559937 
	C686.002930,785.185852 664.652893,779.938660 643.244446,774.991150 
	C639.719055,774.176453 636.280884,772.984192 632.399963,771.957642 
	C631.997620,771.770386 631.997742,771.591797 631.986328,771.144531 
	C632.208191,751.312988 635.290649,732.142700 639.937195,712.738159 
	C640.262024,712.094299 640.571289,711.897888 641.002747,711.559814 
z"/>
<path fill="#3A9343" opacity="1.000000" stroke="none" 
	d="
M1296.271729,908.568726 
	C1300.317871,902.396851 1308.470459,901.331970 1314.244141,905.887695 
	C1319.292236,909.870850 1319.571289,917.628113 1314.845093,922.597778 
	C1307.866943,929.935486 1299.588623,929.915771 1296.282104,921.850098 
	C1294.760864,918.139343 1296.065552,913.270081 1296.271729,908.568726 
z"/>
<path fill="#3A9343" opacity="1.000000" stroke="none" 
	d="
M1281.971680,1640.598877 
	C1278.393677,1651.654541 1270.940918,1654.970947 1262.896118,1649.496704 
	C1255.657593,1644.571289 1256.134521,1633.449951 1264.261475,1630.223267 
	C1267.894775,1628.780884 1272.807861,1629.110840 1276.712280,1630.187622 
	C1281.095459,1631.396484 1282.762817,1635.494995 1281.971680,1640.598877 
z"/>
<path fill="#3A9343" opacity="1.000000" stroke="none" 
	d="
M890.064026,1650.300537 
	C885.323975,1652.492310 880.735718,1653.468872 876.726196,1650.025269 
	C873.070923,1646.886108 873.405334,1642.683716 875.053467,1638.546387 
	C877.071106,1633.481445 882.824890,1630.702026 887.664612,1632.402100 
	C892.519043,1634.107056 895.195862,1639.326172 893.550049,1644.571899 
	C892.934387,1646.534180 891.451660,1648.224487 890.064026,1650.300537 
z"/>
<path fill="#3A9343" opacity="1.000000" stroke="none" 
	d="
M1249.875244,1375.384521 
	C1245.631104,1371.057983 1244.696899,1365.896729 1247.503662,1362.269897 
	C1250.198608,1358.787354 1253.750610,1358.193115 1257.751221,1359.886475 
	C1263.888062,1362.484375 1265.882446,1366.677490 1263.491455,1371.985596 
	C1261.093384,1377.309448 1256.341309,1378.617676 1249.875244,1375.384521 
z"/>
<path fill="#A3CEA9" opacity="1.000000" stroke="none" 
	d="
M776.691040,1013.425659 
	C784.631531,1045.506714 779.478088,1074.527344 757.210876,1098.992920 
	C744.318970,1113.157593 727.497681,1119.015747 708.663269,1113.054810 
	C690.219971,1107.217651 681.893066,1092.221191 677.939575,1074.365479 
	C674.291504,1057.888794 676.904419,1041.518921 679.574402,1025.272705 
	C681.240173,1015.136353 683.104858,1004.849792 686.540222,995.223022 
	C695.236511,970.854187 714.308533,962.924805 738.426025,972.794922 
	C757.169556,980.465698 770.437927,993.386963 776.691040,1013.425659 
z"/>
<path fill="#3A9343" opacity="1.000000" stroke="none" 
	d="
M967.784851,990.324097 
	C972.998962,999.287109 971.819397,1008.699463 965.251465,1012.886230 
	C958.664734,1017.085144 950.054993,1015.682129 945.117798,1009.605469 
	C940.861389,1004.366577 942.155579,996.114868 948.141296,990.327698 
	C954.202087,984.467834 960.751038,984.373047 967.784851,990.324097 
z"/>
<path fill="#3A9343" opacity="1.000000" stroke="none" 
	d="
M898.034546,1361.956543 
	C905.624451,1356.846924 910.808044,1356.871094 915.208862,1361.863892 
	C919.650085,1366.902466 918.696411,1375.119263 913.795288,1380.912720 
	C907.433716,1388.432617 896.282166,1387.882935 892.553894,1378.992676 
	C890.140320,1373.237793 892.155640,1366.962524 898.034546,1361.956543 
z"/>
<path fill="#3A9343" opacity="1.000000" stroke="none" 
	d="
M666.880554,1213.140625 
	C669.317017,1213.797241 671.678284,1213.917603 673.341736,1215.056885 
	C678.599487,1218.657715 682.037781,1223.397827 677.742920,1229.547852 
	C674.011169,1234.891602 665.973938,1236.873779 661.087280,1233.479736 
	C655.482483,1229.586914 654.196899,1222.189575 658.844543,1216.965210 
	C660.614563,1214.975708 663.894287,1214.329224 666.880554,1213.140625 
z"/>
<path fill="#ECF9FF" opacity="1.000000" stroke="none" 
	d="
M770.182495,686.755493 
	C768.684937,687.463440 767.380005,687.886292 765.293640,688.244141 
	C752.533447,689.688782 740.515259,690.942566 728.585999,692.774780 
	C714.684998,694.909912 700.861572,697.550720 687.004517,699.972107 
	C692.370667,685.870056 701.455139,674.148071 710.859070,662.620178 
	C722.142517,648.788208 734.928955,636.527161 749.864807,626.752197 
	C761.847107,618.910095 773.628418,610.287354 788.117188,607.543884 
	C806.350464,604.091370 819.753601,613.654663 821.924438,632.097290 
	C823.567566,646.056641 816.577087,656.204224 806.425781,664.816101 
	C795.576782,674.019714 782.421875,679.305664 770.182495,686.755493 
z"/>
<path fill="#BADCBD" opacity="1.000000" stroke="none" 
	d="
M686.793762,700.060242 
	C700.861572,697.550720 714.684998,694.909912 728.585999,692.774780 
	C740.515259,690.942566 752.533447,689.688782 764.952393,688.315430 
	C757.032593,693.211304 748.727417,698.070251 740.299255,702.705566 
	C729.655151,708.559509 718.943909,714.294250 708.187683,719.939453 
	C705.259033,721.476562 702.163757,722.912842 698.973267,723.695374 
	C687.882385,726.415588 680.962158,719.489258 683.408081,708.321289 
	C683.904907,706.052795 684.625488,703.833374 685.303101,701.161743 
	C685.769897,700.537598 686.176453,700.343018 686.793762,700.060242 
z"/>
</svg>